<?xml version="1.0" encoding="UTF-8"?>
<svg id="Capa_2" data-name="Capa 2" xmlns="http://www.w3.org/2000/svg" xmlns:xlink="http://www.w3.org/1999/xlink" viewBox="0 0 462.42 450.05">
  <defs>
    <style>
      .cls-1 {
        fill: #fff;
      }

      .cls-2 {
        fill: #c8f1d8;
      }

      .cls-3 {
        fill: #cad53a;
      }

      .cls-4 {
        fill: #f3e6ff;
      }

      .cls-5 {
        clip-path: url(#clippath-1);
      }

      .cls-6 {
        fill: #272727;
      }

      .cls-7 {
        fill: #414141;
      }

      .cls-8 {
        fill: #e0cafa;
      }

      .cls-9 {
        clip-path: url(#clippath);
      }

      .cls-10 {
        fill: none;
      }

      .cls-11 {
        fill: #e5e99b;
      }

      .cls-12 {
        fill: #b0bb3a;
      }
    </style>
    <clipPath id="clippath">
      <circle class="cls-10" cx="267.49" cy="217.54" r="194.93" transform="translate(-75.48 252.86) rotate(-45)"/>
    </clipPath>
    <clipPath id="clippath-1">
      <ellipse class="cls-10" cx="231.03" cy="225.02" rx="234.11" ry="221.82" transform="translate(-82.06 147.65) rotate(-30.36)"/>
    </clipPath>
  </defs>
  <g id="OBJECTS">
    <g>
      <g class="cls-9">
        <circle class="cls-2" cx="267.49" cy="217.54" r="194.93" transform="translate(-75.48 252.86) rotate(-45)"/>
        <g>
          <g>
            <path class="cls-6" d="m247.55,299.63c3.14,19.43-9.75,26.58-39.62,20.61-19.11-3.82-31.99-16.96-30.89-37.86,1.11-20.97,18.08-38.02,37.88-38.02s29.33,34.92,32.62,55.27Z"/>
            <path class="cls-6" d="m437.72,292.53c2.86,17.71-8.88,24.22-36.11,18.78-17.42-3.48-29.16-15.46-28.15-34.51,1.01-19.11,16.48-34.65,34.53-34.65s26.74,31.83,29.73,50.37Z"/>
            <g>
              <path class="cls-6" d="m335.59,294.19c2.99,18.49-9.27,25.28-37.69,19.6-18.18-3.63-30.43-16.13-29.38-36.02,1.05-19.95,17.2-36.16,36.04-36.16s27.9,33.22,31.03,52.57Z"/>
              <path d="m351.57,280.01c-1.18,19.82-17.26,35.88-35.95,35.93-18.71.04-33.03-15.98-31.96-35.84,1.08-19.93,17.22-36.13,36.04-36.13,18.79,0,33.05,16.16,31.87,36.05Z"/>
            </g>
            <g>
              <path class="cls-6" d="m118.51,302.74c2.99,18.49-9.27,25.28-37.69,19.6-18.18-3.63-30.43-16.13-29.38-36.01,1.05-19.95,17.2-36.16,36.04-36.16s27.9,33.22,31.03,52.57Z"/>
              <path d="m134.48,288.55c-1.18,19.82-17.26,35.88-35.95,35.93-18.71.04-33.03-15.98-31.96-35.84,1.08-19.93,17.22-36.13,36.04-36.13,18.79,0,33.05,16.16,31.87,36.05Z"/>
            </g>
            <path class="cls-3" d="m519.02,208.49l-6.95-3.97-44.67-2.98s-3.61-2.11-9.43-5.35l-7.8,13.11-204.87,11.5,60.21-52.14s4.22-4.59,11.54-6.78c-8.58,0-17.47.02-26.33.05,11.52-.03,4.12,8.37,4.12,8.37l-59.67,49.64c-29.22,8.23-115.64,3.29-133.38,0-17.69-3.28-.1-13.61,0-13.66-5.54,3.16-9.07,5.18-9.07,5.18,0,0-40.56,9.87-63.6,34.24,3.9,2.58,6.67,4.22,6.67,4.22,0,0,14.35,7.99,3.6,8.88-4.08.34-10.24-2.06-16.43-5.6-6.95,9.91-10.84,21.79-8.86,35.89,0,0,2.48,24.81,167.75,8.44,0,0,13.57-49.13,48.34-48.34,38.44.87,32.07,41.47,32.07,41.47,0,0,.99,4.1,7.94,4.1s113.65-7.08,113.65-7.08c0,0,4.06-45.52,40.38-43.03,27.81,1.91,28.29,35.3,24.82,45.23l48.14-5.46s33.25-28.29,21.84-75.93Z"/>
            <polygon class="cls-12" points="378.77 271.85 270.25 277.21 270.25 282.8 378.77 277.44 378.77 271.85"/>
            <path class="cls-7" d="m305.51,168.67l-60.21,52.14,204.87-11.5,7.8-13.11c-18.94-10.55-61.21-33.1-77.92-33.86-7.99-.36-33.67-.46-63.01-.44-7.31,2.19-11.54,6.78-11.54,6.78Z"/>
            <path class="cls-12" d="m136.47,301.3l1.47-25.78-14.81-12.07c-50.47,3.28-78.09-4.62-78.09-4.62l-10.37,6.92-5.99,31.54s12.35,3.67,29.8,4.94c33.19,2.42,78-.93,78-.93Z"/>
            <path class="cls-11" d="m39.38,258.8c10.75-.89-3.6-8.88-3.6-8.88,0,0-2.77-1.64-6.67-4.22-2.23,2.36-4.3,4.86-6.15,7.5,6.18,3.54,12.35,5.94,16.43,5.6Z"/>
            <path class="cls-3" d="m85.15,263.95s104.96,8.11,150.01-44l-48.84-25.69"/>
            <path class="cls-11" d="m144.64,258.25s24.54-1.04,36.33-6.7c0,0,7.08,2.17,1.6,8.4-5.47,6.23-36.24,10.29-45.3,4.44-9.06-5.85,7.36-6.13,7.36-6.13Z"/>
            <path class="cls-7" d="m101.78,219.95c17.74,3.29,104.16,8.23,133.38,0l59.67-49.64s7.41-8.4-4.12-8.37c-43.62.12-86.35.39-86.35.39,0,0-22.33-1.41-39.21,7.98-12.63,7.03-46.92,26.58-63.39,35.98-.1.06-17.69,10.38,0,13.66Z"/>
            <path class="cls-12" d="m469.47,262.25l-18-45.3c-135.28,4.03-232.45,33.79-232.45,33.79,0,0,14.22-4.69,29.05,2.98,13.44,6.95,14.49,26.93,14.49,26.93"/>
            <path d="m453.03,278.94c-1.13,18.99-16.54,34.38-34.45,34.43-17.93.04-31.65-15.31-30.62-34.35,1.03-19.1,16.5-34.62,34.53-34.62,18.01,0,31.67,15.49,30.54,34.54Z"/>
            <path class="cls-1" d="m446.41,278.95c-.85,14.52-12.63,26.28-26.32,26.31-13.7.03-24.17-11.71-23.38-26.25.8-14.58,12.61-26.42,26.37-26.43,13.75,0,24.19,11.81,23.33,26.36Z"/>
            <path class="cls-4" d="m443.42,278.95c-.75,12.77-11.11,23.13-23.16,23.15-12.05.02-21.26-10.31-20.56-23.1.7-12.82,11.09-23.23,23.19-23.24,12.09,0,21.27,10.39,20.52,23.19Z"/>
            <path class="cls-8" d="m442.2,279.17c.72-12.27-7.69-22.24-18.78-22.23-2.68,0-5.28.59-7.68,1.65,1.31-.29,2.65-.44,4.01-.44,11.1,0,19.51,9.96,18.79,22.23-.54,9.29-6.16,17.24-13.65,20.55,9.27-2.05,16.68-11.01,17.31-21.75Z"/>
            <path d="m264.35,284.72c-1.24,20.84-18.15,37.72-37.8,37.77-19.67.05-34.72-16.8-33.6-37.68,1.13-20.95,18.11-37.98,37.89-37.99,19.76,0,34.75,16.99,33.51,37.9Z"/>
            <path class="cls-1" d="m257.08,284.73c-.94,15.93-13.86,28.83-28.88,28.87-15.03.03-26.52-12.85-25.65-28.8.88-15.99,13.83-28.99,28.93-28.99,15.08,0,26.54,12.96,25.6,28.93Z"/>
            <path class="cls-4" d="m253.8,284.73c-.82,14.01-12.19,25.37-25.41,25.4-13.23.03-23.33-11.31-22.56-25.34.77-14.06,12.17-25.49,25.45-25.5,13.26,0,23.34,11.4,22.52,25.44Z"/>
            <path class="cls-8" d="m252.46,284.98c.79-13.47-8.43-24.4-20.61-24.39-2.95,0-5.79.65-8.43,1.81,1.43-.32,2.9-.48,4.4-.49,12.17,0,21.4,10.92,20.62,24.39-.59,10.19-6.75,18.91-14.98,22.54,10.17-2.25,18.3-12.08,18.99-23.87Z"/>
          </g>
          <polygon class="cls-3" points="196.63 162.37 230.48 156.92 338.93 156.92 344.72 161.96 196.63 162.37"/>
          <polygon class="cls-12" points="379.5 162.31 368.16 156.92 337.13 156.92 344.72 161.96 379.5 162.31"/>
        </g>
      </g>
      <g class="cls-5">
        <g>
          <g>
            <path class="cls-6" d="m247.55,299.63c3.14,19.43-9.75,26.58-39.62,20.61-19.11-3.82-31.99-16.96-30.89-37.86,1.11-20.97,18.08-38.02,37.88-38.02s29.33,34.92,32.62,55.27Z"/>
            <path class="cls-6" d="m437.72,292.53c2.86,17.71-8.88,24.22-36.11,18.78-17.42-3.48-29.16-15.46-28.15-34.51,1.01-19.11,16.48-34.65,34.53-34.65s26.74,31.83,29.73,50.37Z"/>
            <g>
              <path class="cls-6" d="m335.59,294.19c2.99,18.49-9.27,25.28-37.69,19.6-18.18-3.63-30.43-16.13-29.38-36.02,1.05-19.95,17.2-36.16,36.04-36.16s27.9,33.22,31.03,52.57Z"/>
              <path d="m351.57,280.01c-1.18,19.82-17.26,35.88-35.95,35.93-18.71.04-33.03-15.98-31.96-35.84,1.08-19.93,17.22-36.13,36.04-36.13,18.79,0,33.05,16.16,31.87,36.05Z"/>
            </g>
            <g>
              <path class="cls-6" d="m118.51,302.74c2.99,18.49-9.27,25.28-37.69,19.6-18.18-3.63-30.43-16.13-29.38-36.01,1.05-19.95,17.2-36.16,36.04-36.16s27.9,33.22,31.03,52.57Z"/>
              <path d="m134.48,288.55c-1.18,19.82-17.26,35.88-35.95,35.93-18.71.04-33.03-15.98-31.96-35.84,1.08-19.93,17.22-36.13,36.04-36.13,18.79,0,33.05,16.16,31.87,36.05Z"/>
            </g>
            <path class="cls-3" d="m519.02,208.49l-6.95-3.97-44.67-2.98s-3.61-2.11-9.43-5.35l-7.8,13.11-204.87,11.5,60.21-52.14s4.22-4.59,11.54-6.78c-8.58,0-17.47.02-26.33.05,11.52-.03,4.12,8.37,4.12,8.37l-59.67,49.64c-29.22,8.23-115.64,3.29-133.38,0-17.69-3.28-.1-13.61,0-13.66-5.54,3.16-9.07,5.18-9.07,5.18,0,0-40.56,9.87-63.6,34.24,3.9,2.58,6.67,4.22,6.67,4.22,0,0,14.35,7.99,3.6,8.88-4.08.34-10.24-2.06-16.43-5.6-6.95,9.91-10.84,21.79-8.86,35.89,0,0,2.48,24.81,167.75,8.44,0,0,13.57-49.13,48.34-48.34,38.44.87,32.07,41.47,32.07,41.47,0,0,.99,4.1,7.94,4.1s113.65-7.08,113.65-7.08c0,0,4.06-45.52,40.38-43.03,27.81,1.91,28.29,35.3,24.82,45.23l48.14-5.46s33.25-28.29,21.84-75.93Z"/>
            <polygon class="cls-12" points="378.77 271.85 270.25 277.21 270.25 282.8 378.77 277.44 378.77 271.85"/>
            <path class="cls-7" d="m305.51,168.67l-60.21,52.14,204.87-11.5,7.8-13.11c-18.94-10.55-61.21-33.1-77.92-33.86-7.99-.36-33.67-.46-63.01-.44-7.31,2.19-11.54,6.78-11.54,6.78Z"/>
            <path class="cls-12" d="m136.47,301.3l1.47-25.78-14.81-12.07c-50.47,3.28-78.09-4.62-78.09-4.62l-10.37,6.92-5.99,31.54s12.35,3.67,29.8,4.94c33.19,2.42,78-.93,78-.93Z"/>
            <path class="cls-11" d="m39.38,258.8c10.75-.89-3.6-8.88-3.6-8.88,0,0-2.77-1.64-6.67-4.22-2.23,2.36-4.3,4.86-6.15,7.5,6.18,3.54,12.35,5.94,16.43,5.6Z"/>
            <path class="cls-3" d="m85.15,263.95s104.96,8.11,150.01-44l-48.84-25.69"/>
            <path class="cls-11" d="m144.64,258.25s24.54-1.04,36.33-6.7c0,0,7.08,2.17,1.6,8.4-5.47,6.23-36.24,10.29-45.3,4.44-9.06-5.85,7.36-6.13,7.36-6.13Z"/>
            <path class="cls-7" d="m101.78,219.95c17.74,3.29,104.16,8.23,133.38,0l59.67-49.64s7.41-8.4-4.12-8.37c-43.62.12-86.35.39-86.35.39,0,0-22.33-1.41-39.21,7.98-12.63,7.03-46.92,26.58-63.39,35.98-.1.06-17.69,10.38,0,13.66Z"/>
            <path class="cls-12" d="m469.47,262.25l-18-45.3c-135.28,4.03-232.45,33.79-232.45,33.79,0,0,14.22-4.69,29.05,2.98,13.44,6.95,14.49,26.93,14.49,26.93"/>
            <path d="m453.03,278.94c-1.13,18.99-16.54,34.38-34.45,34.43-17.93.04-31.65-15.31-30.62-34.35,1.03-19.1,16.5-34.62,34.53-34.62,18.01,0,31.67,15.49,30.54,34.54Z"/>
            <path class="cls-1" d="m446.41,278.95c-.85,14.52-12.63,26.28-26.32,26.31-13.7.03-24.17-11.71-23.38-26.25.8-14.58,12.61-26.42,26.37-26.43,13.75,0,24.19,11.81,23.33,26.36Z"/>
            <path class="cls-4" d="m443.42,278.95c-.75,12.77-11.11,23.13-23.16,23.15-12.05.02-21.26-10.31-20.56-23.1.7-12.82,11.09-23.23,23.19-23.24,12.09,0,21.27,10.39,20.52,23.19Z"/>
            <path class="cls-8" d="m442.2,279.17c.72-12.27-7.69-22.24-18.78-22.23-2.68,0-5.28.59-7.68,1.65,1.31-.29,2.65-.44,4.01-.44,11.1,0,19.51,9.96,18.79,22.23-.54,9.29-6.16,17.24-13.65,20.55,9.27-2.05,16.68-11.01,17.31-21.75Z"/>
            <path d="m264.35,284.72c-1.24,20.84-18.15,37.72-37.8,37.77-19.67.05-34.72-16.8-33.6-37.68,1.13-20.95,18.11-37.98,37.89-37.99,19.76,0,34.75,16.99,33.51,37.9Z"/>
            <path class="cls-1" d="m257.08,284.73c-.94,15.93-13.86,28.83-28.88,28.87-15.03.03-26.52-12.85-25.65-28.8.88-15.99,13.83-28.99,28.93-28.99,15.08,0,26.54,12.96,25.6,28.93Z"/>
            <path class="cls-4" d="m253.8,284.73c-.82,14.01-12.19,25.37-25.41,25.4-13.23.03-23.33-11.31-22.56-25.34.77-14.06,12.17-25.49,25.45-25.5,13.26,0,23.34,11.4,22.52,25.44Z"/>
            <path class="cls-8" d="m252.46,284.98c.79-13.47-8.43-24.4-20.61-24.39-2.95,0-5.79.65-8.43,1.81,1.43-.32,2.9-.48,4.4-.49,12.17,0,21.4,10.92,20.62,24.39-.59,10.19-6.75,18.91-14.98,22.54,10.17-2.25,18.3-12.08,18.99-23.87Z"/>
          </g>
          <polygon class="cls-3" points="196.63 162.37 230.48 156.92 338.93 156.92 344.72 161.96 196.63 162.37"/>
          <polygon class="cls-12" points="379.5 162.31 368.16 156.92 337.13 156.92 344.72 161.96 379.5 162.31"/>
        </g>
      </g>
    </g>
  </g>
</svg>