<?xml version="1.0" encoding="UTF-8"?>
<svg id="Capa_2" data-name="Capa 2" xmlns="http://www.w3.org/2000/svg" viewBox="0 0 389.87 443.96">
  <defs>
    <style>
      .cls-1 {
        fill: #c8f1d8;
      }

      .cls-2 {
        fill: #cad53a;
      }

      .cls-3 {
        fill: #414141;
      }

      .cls-4 {
        fill: #a7b01f;
      }

      .cls-5 {
        fill: #e5e99b;
      }
    </style>
  </defs>
  <g id="OBJECTS">
    <g>
      <circle class="cls-1" cx="194.93" cy="221.98" r="194.93" transform="translate(-99.87 202.86) rotate(-45)"/>
      <g>
        <rect class="cls-4" x="94.91" width="199.79" height="97.12" rx="43.26" ry="43.26"/>
        <path class="cls-2" d="m160.41,443.96h68.79c36.17,0,65.5-29.32,65.5-65.5V66.09c0-28.88-23.41-52.29-52.29-52.29h-95.2c-28.88,0-52.29,23.41-52.29,52.29v312.37c0,36.18,29.32,65.5,65.5,65.5Z"/>
        <path class="cls-3" d="m159.82,363.8h69.97c31.36,0,56.79-23.46,56.79-52.4v-79.36c0,28.94-25.43,52.4-56.79,52.4h-69.97c-31.36,0-56.79-23.46-56.79-52.4v79.36c0,28.94,25.43,52.4,56.79,52.4Z"/>
        <path class="cls-3" d="m159.82,117.32h69.97c31.36,0,56.79,13.58,56.79,30.33v-45.94c0-16.75-25.43-30.33-56.79-30.33h-69.97c-31.36,0-56.79,13.58-56.79,30.33v45.94c0-16.75,25.43-30.33,56.79-30.33Z"/>
        <g>
          <path class="cls-5" d="m145.78,442.28c0-.1.01-.19.01-.29,0-16.2-13.13-29.34-29.34-29.34-3.73,0-7.28.72-10.56,1.99,9.13,13.74,23.31,23.83,39.89,27.63Z"/>
          <path class="cls-5" d="m283.71,414.65c-3.28-1.27-6.83-1.99-10.56-1.99-16.2,0-29.34,13.13-29.34,29.34,0,.1.01.19.01.29,16.58-3.81,30.76-13.89,39.89-27.63Z"/>
        </g>
        <g>
          <path class="cls-4" d="m310.71,276.88v-4.33c0-4.55-3.69-8.24-8.24-8.24h-12.57v20.8h12.57c4.55,0,8.24-3.69,8.24-8.24Z"/>
          <path class="cls-4" d="m86.91,285.11h12.57v-20.8h-12.57c-4.55,0-8.23,3.69-8.23,8.24v4.33c0,4.55,3.69,8.24,8.23,8.24Z"/>
        </g>
        <polygon class="cls-4" points="286.58 121.16 294.69 101.71 294.69 315.58 286.58 296.14 286.58 121.16"/>
        <polygon class="cls-4" points="94.91 101.71 103.03 121.16 103.03 296.14 94.91 315.58 94.91 101.71"/>
      </g>
    </g>
  </g>
</svg>